<?xml version="1.0" standalone="no"?><!DOCTYPE svg PUBLIC "-//W3C//DTD SVG 1.1//EN" "http://www.w3.org/Graphics/SVG/1.1/DTD/svg11.dtd"><svg t="1589262260286" class="icon" viewBox="0 0 1024 1024" version="1.1" xmlns="http://www.w3.org/2000/svg" p-id="6170" xmlns:xlink="http://www.w3.org/1999/xlink" width="32" height="32"><defs><style type="text/css"></style></defs><path d="M0 0h1024v1024H0z" fill="#FFFFFF" p-id="6171"></path><path d="M64 928a32 32 0 1 0 64 0H64zM928 128a32 32 0 1 0 0-64v64zM96 384a32 32 0 1 0 0 64v-64z m832 64a32 32 0 1 0 0-64v64zM96 704a32 32 0 1 0 0 64v-64z m832 64a32 32 0 1 0 0-64v64zM768 96a32 32 0 1 0-64 0h64z m-64 832a32 32 0 1 0 64 0h-64zM448 96a32 32 0 1 0-64 0h64z m-64 832a32 32 0 1 0 64 0h-64z m-256 0V160H64v768h64zM160 128h768V64H160v64zM128 160a32 32 0 0 1 32-32V64a96 96 0 0 0-96 96h64z m-32 288h832v-64H96v64z m0 320h832v-64H96v64zM704 96v832h64V96h-64zM384 96v832h64V96h-64z" fill="#000000" p-id="6172"></path></svg>